
<?xml version="1.0" encoding="utf-8"?>
<!-- Svg Vector Icons : http://www.onlinewebfonts.com/icon -->
<!DOCTYPE svg PUBLIC "-//W3C//DTD SVG 1.1//EN" "http://www.w3.org/Graphics/SVG/1.1/DTD/svg11.dtd">
<svg version="1.1" xmlns="http://www.w3.org/2000/svg" xmlns:xlink="http://www.w3.org/1999/xlink" x="0px" y="0px" viewBox="0 0 1000 1000" enable-background="new 0 0 1000 1000" xml:space="preserve" fill="white" >
<g><g transform="translate(0.000000,442.000000) scale(0.100000,-0.100000)"><path d="M4482.6,3611.3c-406-40.2-934.5-174.3-1330.9-335.1C1531.6,2613.6,403.6,1163.9,145.1-590.2C36-1329.4,127.9-2204.5,388.3-2924.6c153.2-421.3,463.4-1007.3,584.1-1103c72.8-55.5,164.7-49.8,239.4,17.2c51.7,46,63.2,68.9,61.3,130.2c-1.9,42.1-17.2,97.7-36.4,126.4c-17.2,26.8-26.8,57.5-21.1,67c5.7,9.6,90,63.2,185.8,118.7c139.8,80.4,180,114.9,203,166.6c34.5,84.2,19.2,158.9-44,218.3c-80.4,74.7-178.1,59.4-375.3-57.4c-90-53.6-170.4-97.7-176.2-97.7c-38.3,0-250.9,509.4-339,815.8c-86.2,296.8-170.4,787.1-170.4,986.2v70.9l229.8,7.7c220.2,5.7,231.7,7.7,281.5,59.4c42.1,42.1,53.6,70.9,53.6,136c0,155.1-90,203-390.7,203h-180L507-885.1c24.9,331.3,107.2,727.7,222.1,1070.5c57.5,176.2,218.3,551.5,254.7,599.4c21.1,26.8,46,17.2,204.9-74.7c212.6-122.6,275.8-130.2,367.7-47.9c51.7,46,63.2,68.9,63.2,132.1c0,99.6-36.4,137.9-243.2,258.5c-93.8,53.6-168.5,105.3-168.5,114.9c0,28.7,197.2,298.7,360,494.1c237.5,283.4,524.7,543.9,863.7,779.4l143.6,99.6l91.9-157c49.8-88.1,113-181.9,137.9-210.6c88.1-101.5,270-63.2,316,65.1c24.9,70.8,3.8,139.8-101.5,321.7c-49.8,84.3-88.1,158.9-88.1,168.5c0,26.8,348.5,183.8,593.6,268.1c379.2,130.2,896.2,233.6,1164.3,233.6h114.9l7.7-229.8c5.7-220.2,7.7-231.7,59.4-281.5c70.9-72.8,185.8-70.8,260.4,1.9c47.9,47.9,49.8,61.3,55.5,279.6l7.7,229.8h114.9c268.1,0,785.1-103.4,1164.3-233.6c241.3-82.3,593.6-241.3,593.6-268.1c0-7.7-44-93.8-97.7-187.7c-107.2-187.7-122.6-270-61.3-352.4c38.3-53.6,124.5-91.9,174.2-76.6c93.8,30.6,130.2,68.9,231.7,241.3l109.1,187.7l143.6-99.6c339-235.5,626.2-496,863.7-779.4c164.7-197.2,360-465.3,360-494.1c0-9.6-67-55.5-147.4-101.5c-80.4-47.9-170.4-105.3-199.2-128.3c-128.3-109.2-65.1-308.3,101.5-325.5c72.7-7.7,103.4,3.8,264.2,97.7c159,91.9,183.8,101.5,204.9,74.7c36.4-47.9,197.2-423.2,254.7-599.4c114.9-342.8,197.3-739.2,222.1-1070.5l13.4-174.3h-180c-300.6,0-390.7-47.9-390.7-203c0-65.1,11.5-93.8,53.6-136c49.8-51.7,61.3-53.6,281.5-59.4l229.8-7.7v-70.9c0-172.3-72.8-622.4-147.4-898.1c-82.4-312.2-317.9-903.9-360-903.9c-5.7,0-86.2,44-178.1,97.7c-197.3,118.7-294.9,132.1-375.4,57.4c-65.1-61.3-78.5-137.9-40.2-220.2c24.9-53.6,72.8-91.9,203-166.6c93.8-55.5,176.2-107.2,181.9-116.8c5.8-9.6-3.8-40.2-23-67c-65.1-101.5-21.1-273.8,78.5-300.7c95.8-26.8,159-11.5,214.5,53.6c84.2,95.7,243.2,365.8,363.8,618.5c549.6,1154.7,631.9,2439.7,235.5,3646.1C9047.9,2108,7406.7,3425.5,5489.8,3611.3C5248.5,3636.2,4720,3634.3,4482.6,3611.3z"/><path d="M6782.4,51.3l-1254.3-496l-76.6,46c-124.5,70.9-271.9,105.3-453.9,105.3c-861.7,0-1300.3-1043.7-693.2-1654.6c197.2-197.2,411.7-287.2,695.1-287.2c283.4,0,497.9,90,695.1,287.2c162.8,162.8,260.4,383,285.3,633.9c5.7,55.5,103.4,141.7,1068.5,926.8C7632.7,87.7,8111.4,486,8109.5,493.7c-1.9,9.6-3.8,26.8-3.8,36.4c-1.9,11.5-19.2,19.2-36.4,17.2C8050.2,547.3,7471.8,323.3,6782.4,51.3z M5239-731.9c296.8-130.2,429-509.4,281.5-800.5c-212.6-413.6-829.2-413.6-1041.8,0c-134,264.3-38.3,609,214.5,766C4846.4-672.5,5070.5-657.2,5239-731.9z"/><path d="M2925.7-3665.7c-82.3-63.2-93.8-143.6-86.2-586c5.7-375.3,9.6-409.8,46-459.6c21.1-28.7,61.3-59.4,86.2-65.1c59.4-17.2,3996.6-17.2,4055.9,0c24.9,5.7,65.1,36.4,86.2,65.1c36.4,49.8,40.2,84.3,46,459.6c7.7,442.4-3.8,522.8-86.2,586c-49.8,40.2-61.3,40.2-2073.9,40.2C2986.9-3625.4,2975.5-3625.4,2925.7-3665.7z M6761.4-4209.5v-201.1H4999.6H3237.8v201.1v201.1h1761.8h1761.8V-4209.5z"/></g></g>
</svg>