<?xml version="1.0" encoding="utf-8"?>
<!-- Svg Vector Icons : http://www.onlinewebfonts.com/icon -->
<!DOCTYPE svg PUBLIC "-//W3C//DTD SVG 1.1//EN" "http://www.w3.org/Graphics/SVG/1.1/DTD/svg11.dtd">
<svg version="1.1" xmlns="http://www.w3.org/2000/svg"  x="0px" y="0px" fill="white" viewBox="0 0 1000 1000" enable-background="new 0 0 1000 1000" xml:space="preserve">
<g><g><g id="Layer_2_25_"><g><path d="M500,10C229.8,10,10,229.8,10,500c0,270.2,219.8,490,490,490c270.2,0,490-219.8,490-490C990,229.8,770.2,10,500,10z M500,876.2c-207.4,0-376.2-168.8-376.2-376.2c0-207.4,168.8-376.2,376.2-376.2c207.4,0,376.2,168.8,376.2,376.2C876.2,707.4,707.4,876.2,500,876.2z"/><path d="M500,167.3c-0.3,0-0.5,0-0.8,0v329.5H167.4c0,1.1-0.1,2.1-0.1,3.2c0,183.5,149.2,332.7,332.7,332.7c183.5,0,332.7-149.3,332.7-332.7C832.7,316.5,683.5,167.3,500,167.3z"/></g></g></g><g></g><g></g><g></g><g></g><g></g><g></g><g></g><g></g><g></g><g></g><g></g><g></g><g></g><g></g><g></g></g>
</svg>